PathFileType	4	(X/Y/Z)	/home/lloyd/projects/artisynth/mainroot/artisynth_core/src/artisynth/demos/tutorial/data/offMarkers.trc
DataRate	CameraRate	NumFrames	NumMarkers	Units	OrigDataRate	OrigDataStartFrame	OrigNumFrames
50	50	28	7	mm	50	51	201
Frame#	Time	mkr8			mkr4			mkr6			mkr5			mkr7			mkr0			mkr2		
		X1	Y1	Z1	X2	Y2	Z2	X3	Y3	Z3	X4	Y4	Z4	X5	Y5	Z5	X6	Y6	Z6	X7	Y7	Z7

51	 1.0000000	-0.4749938	 0.0045048	 1.0801858	-0.4325775	-0.0182569	 0.9624863	-0.3837819	-0.0220182	 1.0623421	-0.0707430	 0.0181577	 0.5464050	 0.1115620	 0.0236301	 0.5320520	-0.1294250	 0.0151680	 0.3500916	 0.1076400	-0.0060904	 0.3632107
52	 1.0200000	-0.4740999	 0.0045048	 1.0810684	-0.4319026	-0.0182569	 0.9632902	-0.3829214	-0.0220182	 1.0630550	-0.0707430	 0.0181577	 0.5464050	 0.1115620	 0.0236301	 0.5320520	-0.1294250	 0.0151680	 0.3500916	 0.1076400	-0.0060904	 0.3632107
53	 1.0400000	-0.4714571	 0.0045048	 1.0836587	-0.4299057	-0.0182569	 0.9656511	-0.3803786	-0.0220182	 1.0651461	-0.0707430	 0.0181577	 0.5464050	 0.1115620	 0.0236301	 0.5320520	-0.1294250	 0.0151680	 0.3500916	 0.1076400	-0.0060904	 0.3632107
54	 1.0600000	-0.4671109	 0.0045048	 1.0878575	-0.4266170	-0.0182569	 0.9694829	-0.3762017	-0.0220182	 1.0685307	-0.0707430	 0.0181577	 0.5464050	 0.1115620	 0.0236301	 0.5320520	-0.1294250	 0.0151680	 0.3500916	 0.1076400	-0.0060904	 0.3632107
55	 1.0800000	-0.4610924	 0.0045048	 1.0935497	-0.4220534	-0.0182569	 0.9746873	-0.3704271	-0.0220182	 1.0731094	-0.0707430	 0.0181577	 0.5464050	 0.1115620	 0.0236301	 0.5320520	-0.1294250	 0.0151680	 0.3500916	 0.1076400	-0.0060904	 0.3632107
56	 1.1000000	-0.4534216	 0.0045048	 1.1006060	-0.4162214	-0.0182569	 0.9811553	-0.3630825	-0.0220182	 1.0787691	-0.0707430	 0.0181577	 0.5464050	 0.1115620	 0.0236301	 0.5320520	-0.1294250	 0.0151680	 0.3500916	 0.1076400	-0.0060904	 0.3632107
57	 1.1200000	-0.4441101	 0.0045048	 1.1088848	-0.4091196	-0.0182569	 0.9887683	-0.3541891	-0.0220182	 1.0853852	-0.0707430	 0.0181577	 0.5464050	 0.1115620	 0.0236301	 0.5320520	-0.1294250	 0.0151680	 0.3500916	 0.1076400	-0.0060904	 0.3632107
58	 1.1400000	-0.4331644	 0.0045048	 1.1182337	-0.4007417	-0.0182569	 0.9973987	-0.3437647	-0.0220182	 1.0928231	-0.0707430	 0.0181577	 0.5464050	 0.1115620	 0.0236301	 0.5320520	-0.1294250	 0.0151680	 0.3500916	 0.1076400	-0.0060904	 0.3632107
59	 1.1600000	-0.4205890	 0.0045048	 1.1284907	-0.3910787	-0.0182569	 1.0069117	-0.3318256	-0.0220182	 1.1009396	-0.0707430	 0.0181577	 0.5464050	 0.1115620	 0.0236301	 0.5320520	-0.1294250	 0.0151680	 0.3500916	 0.1076400	-0.0060904	 0.3632107
60	 1.1800000	-0.4063892	 0.0045048	 1.1394862	-0.3801217	-0.0182569	 1.0171655	-0.3183896	-0.0220182	 1.1095849	-0.0707430	 0.0181577	 0.5464050	 0.1115620	 0.0236301	 0.5320520	-0.1294250	 0.0151680	 0.3500916	 0.1076400	-0.0060904	 0.3632107
61	 1.2000000	-0.3905737	 0.0045048	 1.1510442	-0.3678644	-0.0182569	 1.0280133	-0.3034782	-0.0220182	 1.1186036	-0.0707430	 0.0181577	 0.5464050	 0.1115620	 0.0236301	 0.5320520	-0.1294250	 0.0151680	 0.3500916	 0.1076400	-0.0060904	 0.3632107
62	 1.2200000	-0.3731571	 0.0045048	 1.1629843	-0.3543049	-0.0182569	 1.0393036	-0.2871183	-0.0220182	 1.1278369	-0.0707430	 0.0181577	 0.5464050	 0.1115620	 0.0236301	 0.5320520	-0.1294250	 0.0151680	 0.3500916	 0.1076400	-0.0060904	 0.3632107
63	 1.2400000	-0.3541625	 0.0045048	 1.1751230	-0.3394480	-0.0182569	 1.0508821	-0.2693445	-0.0220182	 1.1371241	-0.0707430	 0.0181577	 0.5464050	 0.1115620	 0.0236301	 0.5320520	-0.1294250	 0.0151680	 0.3500916	 0.1076400	-0.0060904	 0.3632107
64	 1.2600000	-0.3336227	 0.0045048	 1.1872763	-0.3233068	-0.0182569	 1.0625931	-0.2502001	-0.0220182	 1.1463045	-0.0707430	 0.0181577	 0.5464050	 0.1115620	 0.0236301	 0.5320520	-0.1294250	 0.0151680	 0.3500916	 0.1076400	-0.0060904	 0.3632107
65	 1.2800000	-0.3115825	 0.0045048	 1.1992611	-0.3059041	-0.0182569	 1.0742808	-0.2297391	-0.0220182	 1.1552195	-0.0707430	 0.0181577	 0.5464050	 0.1115620	 0.0236301	 0.5320520	-0.1294250	 0.0151680	 0.3500916	 0.1076400	-0.0060904	 0.3632107
66	 1.3000000	-0.2880995	 0.0045048	 1.2108979	-0.2872740	-0.0182569	 1.0857914	-0.2080262	-0.0220182	 1.1637143	-0.0707430	 0.0181577	 0.5464050	 0.1115620	 0.0236301	 0.5320520	-0.1294250	 0.0151680	 0.3500916	 0.1076400	-0.0060904	 0.3632107
67	 1.3200000	-0.2632450	 0.0045048	 1.2220126	-0.2674622	-0.0182569	 1.0969744	-0.1851384	-0.0220182	 1.1716402	-0.0707430	 0.0181577	 0.5464050	 0.1115620	 0.0236301	 0.5320520	-0.1294250	 0.0151680	 0.3500916	 0.1076400	-0.0060904	 0.3632107
68	 1.3400000	-0.2371047	 0.0045048	 1.2324389	-0.2465271	-0.0182569	 1.1076849	-0.1611643	-0.0220182	 1.1788565	-0.0707430	 0.0181577	 0.5464050	 0.1115620	 0.0236301	 0.5320520	-0.1294250	 0.0151680	 0.3500916	 0.1076400	-0.0060904	 0.3632107
69	 1.3600000	-0.2097783	 0.0045048	 1.2420207	-0.2245394	-0.0182569	 1.1177853	-0.1362045	-0.0220182	 1.1852325	-0.0707430	 0.0181577	 0.5464050	 0.1115620	 0.0236301	 0.5320520	-0.1294250	 0.0151680	 0.3500916	 0.1076400	-0.0060904	 0.3632107
70	 1.3800000	-0.1813797	 0.0045048	 1.2506143	-0.2015828	-0.0182569	 1.1271470	-0.1103709	-0.0220182	 1.1906496	-0.0707430	 0.0181577	 0.5464050	 0.1115620	 0.0236301	 0.5320520	-0.1294250	 0.0151680	 0.3500916	 0.1076400	-0.0060904	 0.3632107
71	 1.4000000	-0.1520357	 0.0045048	 1.2580902	-0.1777525	-0.0182569	 1.1356526	-0.0837860	-0.0220182	 1.1950031	-0.0707430	 0.0181577	 0.5464050	 0.1115620	 0.0236301	 0.5320520	-0.1294250	 0.0151680	 0.3500916	 0.1076400	-0.0060904	 0.3632107
72	 1.4200000	-0.1218853	 0.0045048	 1.2643354	-0.1531554	-0.0182569	 1.1431970	-0.0565817	-0.0220182	 1.1982034	-0.0707430	 0.0181577	 0.5464050	 0.1115620	 0.0236301	 0.5320520	-0.1294250	 0.0151680	 0.3500916	 0.1076400	-0.0060904	 0.3632107
73	 1.4400000	-0.0910779	 0.0045048	 1.2692551	-0.1279085	-0.0182569	 1.1496899	-0.0288977	-0.0220182	 1.2001780	-0.0707430	 0.0181577	 0.5464050	 0.1115620	 0.0236301	 0.5320520	-0.1294250	 0.0151680	 0.3500916	 0.1076400	-0.0060904	 0.3632107
74	 1.4600000	-0.0597718	 0.0045048	 1.2727740	-0.1021377	-0.0182569	 1.1550563	-0.0008803	-0.0220182	 1.2008727	-0.0707430	 0.0181577	 0.5464050	 0.1115620	 0.0236301	 0.5320520	-0.1294250	 0.0151680	 0.3500916	 0.1076400	-0.0060904	 0.3632107
75	 1.4800000	-0.0281322	 0.0045048	 1.2748379	-0.0759759	-0.0182569	 1.1592381	 0.0273200	-0.0220182	 1.2002519	-0.0707430	 0.0181577	 0.5464050	 0.1115620	 0.0236301	 0.5320520	-0.1294250	 0.0151680	 0.3500916	 0.1076400	-0.0060904	 0.3632107
76	 1.5000000	 0.0036713	 0.0045048	 1.2754140	-0.0495620	-0.0182569	 1.1621950	 0.0555504	-0.0220182	 1.1983000	-0.0707430	 0.0181577	 0.5464050	 0.1115620	 0.0236301	 0.5320520	-0.1294250	 0.0151680	 0.3500916	 0.1076400	-0.0060904	 0.3632107
77	 1.5200000	 0.0354666	 0.0045048	 1.2744922	-0.0230381	-0.0182569	 1.1639050	 0.0836576	-0.0220182	 1.1950211	-0.0707430	 0.0181577	 0.5464050	 0.1115620	 0.0236301	 0.5320520	-0.1294250	 0.0151680	 0.3500916	 0.1076400	-0.0060904	 0.3632107
78	 1.5400000	 0.0670819	 0.0045048	 1.2720845	 0.0034517	-0.0182569	 1.1643649	 0.1114902	-0.0220182	 1.1904394	-0.0707430	 0.0181577	 0.5464050	 0.1115620	 0.0236301	 0.5320520	-0.1294250	 0.0151680	 0.3500916	 0.1076400	-0.0060904	 0.3632107
